<svg xmlns="http://www.w3.org/2000/svg" width="600" height="320" viewBox="0 0 600 320">
  <rect x="20" y="200" width="560" height="20" fill="#273043"/>
  <g fill="#c2a677">
    <rect x="60" y="170" width="80" height="20" rx="4"/>
    <rect x="150" y="170" width="80" height="20" rx="4"/>
    <rect x="240" y="170" width="80" height="20" rx="4"/>
    <rect x="330" y="170" width="80" height="20" rx="4"/>
    <rect x="420" y="170" width="80" height="20" rx="4"/>
    <rect x="105" y="145" width="80" height="20" rx="4"/>
    <rect x="195" y="145" width="80" height="20" rx="4"/>
    <rect x="285" y="145" width="80" height="20" rx="4"/>
    <rect x="375" y="145" width="80" height="20" rx="4"/>
    <rect x="150" y="120" width="80" height="20" rx="4"/>
    <rect x="240" y="120" width="80" height="20" rx="4"/>
    <rect x="330" y="120" width="80" height="20" rx="4"/>
  </g>
</svg>
